{"title":"Saving Private Ryan-720p MP4 AAC x264 BRRip 1998-CC","uid":7236112,"size":2931589110,"categoryP":"video","categoryS":"hd___movies","magnet":"?xt=urn:btih:dc6afa0b8d4045b689f9ba53e51316a4874a0d01&amp;dn=Saving+Private+Ryan-720p+MP4+AAC+x264+BRRip+1998-CC&amp;tr=udp%3A%2F%2Ftracker.openbittorrent.com%3A80&amp;tr=udp%3A%2F%2Fopen.demonii.com%3A1337&amp;tr=udp%3A%2F%2Ftracker.coppersurfer.tk%3A6969&amp;tr=udp%3A%2F%2Fexodus.desync.com%3A6969","seeders":1,"leechers":0,"uploader":"Caveman44","files":-1,"time":1335994610,"description":"Source: Saving Private Ryan 1998 720p BluRay DTS x264-MELiTE\n\nSubs: Arabic, Brazilian, Bulgarian, Chinese, Czech, Danish, Dutch, English, Estonian, Finnish, French, Greek, Indonesian, Italian, Persian, Polish, Romanian, Servian, Spanish, Swedish, Turkish and Vietnamese.\n\nSample and Screens included.\n\nGeneral\nComplete name                    : Saving Private Ryan-720p MP4 AAC x264 BRRip 1998-CC.mp4\nFormat                           : MPEG-4\nFormat profile                   : Base Media\nCodec ID                         : isom\nFile size                        : 2.69 GiB\nDuration                         : 2h 48mn\nOverall bit rate                 : 2 290 Kbps\nEncoded date                     : UTC 2012-04-28 09:27:57\n\nVideo\nID                               : 1\nFormat                           : AVC\nFormat/Info                      : Advanced Video Codec\nFormat profile                   : &lt;a class=&quot;__cf_email__&quot; href=&quot;/cdn-cgi/l/email-protection&quot; data-cfemail=&quot;a8e0c1cfc0e8e49b8699&quot;&gt;[email&amp;#160;protected]&lt;/a&gt;&lt;script cf-hash='f9e31' type=&quot;text/javascript&quot;&gt;\n/* &lt;![CDATA[ */!function(){try{var t=&quot;currentScript&quot;in document?document.currentScript:function(){for(var t=document.getElementsByTagName(&quot;script&quot;),e=t.length;e--;)if(t[e].getAttribute(&quot;cf-hash&quot;))return t[e]}();if(t&amp;&amp;t.previousSibling){var e,r,n,i,c=t.previousSibling,a=c.getAttribute(&quot;data-cfemail&quot;);if(a){for(e=&quot;&quot;,r=parseInt(a.substr(0,2),16),n=2;a.length-n;n+=2)i=parseInt(a.substr(n,2),16)^r,e+=String.fromCharCode(i);e=document.createTextNode(e),c.parentNode.replaceChild(e,c)}}}catch(u){}}();/* ]]&gt; */&lt;/script&gt;\nFormat settings, CABAC           : Yes\nFormat settings, ReFrames        : 5 frames\nCodec ID                         : avc1\nCodec ID/Info                    : Advanced Video Coding\nDuration                         : 2h 48mn\nBit rate mode                    : Variable\nBit rate                         : 1 901 Kbps\nNominal bit rate                 : 1 929 Kbps\nMaximum bit rate                 : 45.5 Mbps\nWidth                            : 1 280 pixels\nHeight                           : 688 pixels\nDisplay aspect ratio             : 1.860\nFrame rate mode                  : Variable\nFrame rate                       : 23.976 fps\nMinimum frame rate               : 19.133 fps\nMaximum frame rate               : 24.390 fps\nResolution                       : 24 bits\nColorimetry                      : 4:2:0\nScan type                        : Progressive\nBits/(Pixel*Frame)               : 0.090\nStream size                      : 2.23 GiB (83%)\nWriting library                  : x264 core 112\n\nAudio\nID                               : 2\nFormat                           : AAC\nFormat/Info                      : Advanced Audio Codec\nFormat version                   : Version 4\nFormat profile                   : LC\nFormat settings, SBR             : No\nCodec ID                         : 40\nDuration                         : 2h 48mn\nBit rate mode                    : Variable\nBit rate                         : 384 Kbps\nMaximum bit rate                 : 539 Kbps\nChannel(s)                       : 6 channels\nChannel positions                : Front: L C R, Rear: L R, LFE\nSampling rate                    : 48.0 KHz\nResolution                       : 16 bits\nStream size                      : 462 MiB (17%)\n\nEnjoy..\n\nRequested by eidref.","torrent":{"xt":"urn:btih:dc6afa0b8d4045b689f9ba53e51316a4874a0d01","amp;dn":"Saving+Private+Ryan-720p+MP4+AAC+x264+BRRip+1998-CC","amp;tr":["udp%3A%2F%2Ftracker.openbittorrent.com%3A80","udp%3A%2F%2Fopen.demonii.com%3A1337","udp%3A%2F%2Ftracker.coppersurfer.tk%3A6969","udp%3A%2F%2Fexodus.desync.com%3A6969"],"infoHash":"dc6afa0b8d4045b689f9ba53e51316a4874a0d01","infoHashBuffer":{"type":"Buffer","data":[220,106,250,11,141,64,69,182,137,249,186,83,229,19,22,164,135,74,13,1]},"announce":[],"urlList":[]}}